<mxfile host="app.diagrams.net" modified="2023-04-17T19:15:42.954Z" agent="Mozilla/5.0 (Macintosh; Intel Mac OS X 10_15_7) AppleWebKit/537.36 (KHTML, like Gecko) Chrome/112.0.0.0 Safari/537.36" etag="s5zxjsSJBs8lBKC2KXER" version="21.1.8" type="device">
  <diagram name="Page-1" id="IKLA0P7FaQFG2LZp7lGJ">
    <mxGraphModel dx="1434" dy="715" grid="1" gridSize="10" guides="1" tooltips="1" connect="1" arrows="1" fold="1" page="1" pageScale="1" pageWidth="850" pageHeight="1100" math="0" shadow="0">
      <root>
        <mxCell id="0" />
        <mxCell id="1" parent="0" />
        <mxCell id="Ag_9tS7cJsqqAEzXf10c-2" value="Home" style="rounded=0;whiteSpace=wrap;html=1;" vertex="1" parent="1">
          <mxGeometry x="60" y="30" width="90" height="60" as="geometry" />
        </mxCell>
        <mxCell id="Ag_9tS7cJsqqAEzXf10c-3" value="Search&lt;span style=&quot;white-space: pre;&quot;&gt;	&lt;/span&gt;&lt;span style=&quot;white-space: pre;&quot;&gt;	&lt;/span&gt;" style="rounded=1;whiteSpace=wrap;html=1;" vertex="1" parent="1">
          <mxGeometry x="520" y="40" width="150" height="40" as="geometry" />
        </mxCell>
        <mxCell id="Ag_9tS7cJsqqAEzXf10c-4" value="Tweet" style="rounded=1;whiteSpace=wrap;html=1;" vertex="1" parent="1">
          <mxGeometry x="710" y="40" width="100" height="40" as="geometry" />
        </mxCell>
        <mxCell id="Ag_9tS7cJsqqAEzXf10c-5" value="Notifications" style="rounded=0;whiteSpace=wrap;html=1;" vertex="1" parent="1">
          <mxGeometry x="150" y="30" width="130" height="60" as="geometry" />
        </mxCell>
        <mxCell id="Ag_9tS7cJsqqAEzXf10c-6" value="Messages" style="rounded=0;whiteSpace=wrap;html=1;" vertex="1" parent="1">
          <mxGeometry x="280" y="30" width="90" height="60" as="geometry" />
        </mxCell>
        <mxCell id="Ag_9tS7cJsqqAEzXf10c-7" value="Richard Muffinsocks" style="rounded=0;whiteSpace=wrap;html=1;" vertex="1" parent="1">
          <mxGeometry x="60" y="139" width="150" height="181" as="geometry" />
        </mxCell>
        <mxCell id="Ag_9tS7cJsqqAEzXf10c-8" value="" style="endArrow=none;html=1;rounded=0;" edge="1" parent="1">
          <mxGeometry width="50" height="50" relative="1" as="geometry">
            <mxPoint y="120" as="sourcePoint" />
            <mxPoint x="850" y="120" as="targetPoint" />
          </mxGeometry>
        </mxCell>
        <mxCell id="Ag_9tS7cJsqqAEzXf10c-11" value="Lorem ipsum&lt;br&gt;" style="rounded=0;whiteSpace=wrap;html=1;" vertex="1" parent="1">
          <mxGeometry x="60" y="320" width="150" height="270" as="geometry" />
        </mxCell>
        <mxCell id="Ag_9tS7cJsqqAEzXf10c-12" value="" style="rounded=0;whiteSpace=wrap;html=1;" vertex="1" parent="1">
          <mxGeometry x="250" y="140" width="380" height="450" as="geometry" />
        </mxCell>
        <mxCell id="Ag_9tS7cJsqqAEzXf10c-13" value="" style="rounded=0;whiteSpace=wrap;html=1;" vertex="1" parent="1">
          <mxGeometry x="670" y="140" width="140" height="200" as="geometry" />
        </mxCell>
        <mxCell id="Ag_9tS7cJsqqAEzXf10c-14" value="What&#39;s Happening?&lt;br&gt;" style="text;strokeColor=none;align=center;fillColor=none;html=1;verticalAlign=middle;whiteSpace=wrap;rounded=0;" vertex="1" parent="1">
          <mxGeometry x="280" y="160" width="320" height="30" as="geometry" />
        </mxCell>
        <mxCell id="Ag_9tS7cJsqqAEzXf10c-15" value="tweet" style="rounded=0;whiteSpace=wrap;html=1;" vertex="1" parent="1">
          <mxGeometry x="260" y="210" width="360" height="70" as="geometry" />
        </mxCell>
        <mxCell id="Ag_9tS7cJsqqAEzXf10c-16" value="tweet" style="rounded=0;whiteSpace=wrap;html=1;" vertex="1" parent="1">
          <mxGeometry x="260" y="280" width="360" height="70" as="geometry" />
        </mxCell>
        <mxCell id="Ag_9tS7cJsqqAEzXf10c-17" value="tweet" style="rounded=0;whiteSpace=wrap;html=1;" vertex="1" parent="1">
          <mxGeometry x="260" y="420" width="360" height="70" as="geometry" />
        </mxCell>
        <mxCell id="Ag_9tS7cJsqqAEzXf10c-18" value="tweet" style="rounded=0;whiteSpace=wrap;html=1;" vertex="1" parent="1">
          <mxGeometry x="260" y="350" width="360" height="70" as="geometry" />
        </mxCell>
        <mxCell id="Ag_9tS7cJsqqAEzXf10c-19" value="tweet" style="rounded=0;whiteSpace=wrap;html=1;" vertex="1" parent="1">
          <mxGeometry x="260" y="490" width="360" height="70" as="geometry" />
        </mxCell>
        <mxCell id="Ag_9tS7cJsqqAEzXf10c-28" value="" style="ellipse;whiteSpace=wrap;html=1;aspect=fixed;" vertex="1" parent="1">
          <mxGeometry x="715" y="150" width="50" height="50" as="geometry" />
        </mxCell>
        <mxCell id="Ag_9tS7cJsqqAEzXf10c-29" value="" style="ellipse;whiteSpace=wrap;html=1;aspect=fixed;" vertex="1" parent="1">
          <mxGeometry x="715" y="210" width="50" height="50" as="geometry" />
        </mxCell>
        <mxCell id="Ag_9tS7cJsqqAEzXf10c-30" value="" style="ellipse;whiteSpace=wrap;html=1;aspect=fixed;" vertex="1" parent="1">
          <mxGeometry x="715" y="270" width="50" height="50" as="geometry" />
        </mxCell>
        <mxCell id="Ag_9tS7cJsqqAEzXf10c-31" value="" style="shape=image;imageAspect=0;aspect=fixed;verticalLabelPosition=bottom;verticalAlign=top;image=data:image/svg+xml,PHN2ZyB4bWxuczp4bGluaz0iaHR0cDovL3d3dy53My5vcmcvMTk5OS94bGluayIgeG1sbnM9Imh0dHA6Ly93d3cudzMub3JnLzIwMDAvc3ZnIiB4bWw6c3BhY2U9InByZXNlcnZlIiB2aWV3Qm94PSIwIDAgNDgwIDQ4MCIgaWQ9IkxheWVyXzEiIHZlcnNpb249IjEuMSIgd2lkdGg9IjgwMHB4IiBoZWlnaHQ9IjgwMHB4IiBmaWxsPSIjMDAwMDAwIj4mI3hhOzxnPiYjeGE7CTxnPiYjeGE7CQk8Zz4mI3hhOwkJCTxwYXRoIGQ9Ik0xNTguODAxLDIyMy45MDNjMi41OTQsOS4wNTgsMTAuODk4LDMyLjA4OCwzMS4xODIsNDYuMjI0bC0wLjMsMTUuOTQ5Yy0xOS4zMjksNi40MzctNzQuMjM5LDI1LjE4Mi05Ny41LDM3LjkzNSYjMTA7JiM5OyYjOTsmIzk7JiM5O2MtMi4wODcsMS4xNDQtMy42OTcsMi45OTUtNC41NDEsNS4yMmMtMC43ODgsMi4wNzUtMTkuMiw1MS4yNTMtMTEuMTU3LDg4LjA5OGMxLjAwMyw0LjU5Myw1LjA2OSw3Ljg2Nyw5Ljc3LDcuODY3aDMwNy4yNjYmIzEwOyYjOTsmIzk7JiM5OyYjOTtjNC42OTksMCw4Ljc2NC0zLjI3MSw5Ljc2OS03Ljg2MWM4LjA0LTM2LjcyMS04Ljk5Ni04NS43NzctOS43MjUtODcuODQ3Yy0wLjgxNy0yLjMyLTIuNDYxLTQuMjU4LTQuNjE3LTUuNDQzJiMxMDsmIzk7JiM5OyYjOTsmIzk7Yy0yMy4wNjEtMTIuNjY5LTc0LjcyNC0zMS41MjYtOTMuMjg0LTM4LjE1MXYtMTYuMDUyYzE0LjE1NC0xNC4xNDMsMjMuOTMzLTM3LjE3NCwyNy4wNzEtNDUuMjI0JiMxMDsmIzk7JiM5OyYjOTsmIzk7YzYuOTQzLTUuNjQyLDI1LjEyMS0yMi42MiwyNS4xMjEtNDUuNzI2YzAtMTYuMTIzLTcuMDMtMjQuMTg3LTE1LjI3OS0yNi45ODVjMS42NzEtMTguMTc5LDEuNzI4LTU0LjI2OS0xOS4yNTYtNzkuODE3JiMxMDsmIzk7JiM5OyYjOTsmIzk7Yy0xNC45ODUtMTguMjQ1LTM3LjQ2NS0yNy40OTYtNjYuODEzLTI3LjQ5NkgyMzQuMTZjLTI5LjM0OSwwLTUxLjgwNCw5LjI1LTY2Ljc0MywyNy40OTMmIzEwOyYjOTsmIzk7JiM5OyYjOTtjLTIwLjgyLDI1LjQyNi0yMC43NjMsNjEuMjk1LTE5LjA2MSw3OS41NjljLTguMDIsMi42OTgtMTQuODg3LDEwLjYxOS0xNC44ODcsMjYuNTYzJiMxMDsmIzk7JiM5OyYjOTsmIzk7QzEzMy40NywyMDAuODkxLDE1MS4zODYsMjE3Ljg1NCwxNTguODAxLDIyMy45MDN6IE0zMTguMzIzLDMxNS41NTFjMTkuODEzLDcuNTA2LDQzLjIyMywxNi44NTQsNTcuNTUzLDI0LjE5OSYjMTA7JiM5OyYjOTsmIzk7JiM5O2MzLjIwNSwxMC4yOTMsMTEuNjc0LDQwLjUzOCw5LjExNCw2NS40NDVIOTQuODE3Yy0yLjM5My0yNC45Myw2Ljg4LTU1LjI2NiwxMC4zMDItNjUuMzkzJiMxMDsmIzk7JiM5OyYjOTsmIzk7YzEyLjI4My02LjIyMSwzMS44NDgtMTMuODYsNTAuMjQyLTIwLjU3NmM4LjM2Myw4LjcyNCwzNi43NDcsMzUuMDM0LDc2LjIxNiwzNi42MzJjMS4yNjIsMC4wNTEsMi41MjIsMC4wNzcsMy43OCwwLjA3NyYjMTA7JiM5OyYjOTsmIzk7JiM5O2MyOC40NDUsMCw1NS45MTktMTMuMDYsODEuNzE4LTM4Ljg2MUMzMTcuNTQ5LDMxNi41OTksMzE3Ljk2NCwzMTYuMDg4LDMxOC4zMjMsMzE1LjU1MXogTTE1NC44NDMsMTcwLjU4MyYjMTA7JiM5OyYjOTsmIzk7JiM5O2MwLjA3NS0wLjAxMywwLjE5Ny0wLjAyNywwLjM3NS0wLjAyN2MwLjQ0OSwwLDAuODg5LDAuMDg5LDEuMTE1LDAuMTQ3YzMuMzg3LDEuNDM1LDcuMDU4LDAuNzkzLDkuOTMxLTEuNTImIzEwOyYjOTsmIzk7JiM5OyYjOTtjMi45MDUtMi4zNCw0LjAyMy02LjIwMiwzLjI4OC05Ljg1OWMtMC4wOTQtMC40NjgtOS4xNTEtNDcuMTAxLDEzLjM0MS03NC41NjhjMTAuOTU2LTEzLjM4LDI4LjIwNi0yMC4xNjQsNTEuMjY5LTIwLjE2NGgxMi4zNDYmIzEwOyYjOTsmIzk7JiM5OyYjOTtjMjMuMDQyLDAsNDAuMzA1LDYuNzczLDUxLjMxLDIwLjEzMmMyMi41MTcsMjcuMzMyLDEzLjcwNCw3NC4xNzQsMTMuNjE1LDc0LjYyOWMtMC43MDksMy41NzksMC4zNCw3LjM1LDMuMTM1LDkuNjk0JiMxMDsmIzk7JiM5OyYjOTsmIzk7YzIuNzYzLDIuMzE3LDYuMzE1LDMuMDUyLDkuNjgxLDEuNzkzYzAuMTgzLTAuMDM5LDAuNTc4LTAuMTEsMS4wNDMtMC4xMWMwLjE4MiwwLDAuNzkxLDAuMDE1LDAuOTc2LDAuMjA0JiMxMDsmIzk7JiM5OyYjOTsmIzk7YzAuNTksMC42MDQsMS41ODksMi45NTgsMS41ODksNy45NTZjMCwxNy40NzktMTkuMDU3LDMxLjI0MS0xOS4yMjIsMzEuMzU5Yy0xLjY5NywxLjE5LTIuOTg1LDIuODg1LTMuNjgsNC44MzgmIzEwOyYjOTsmIzk7JiM5OyYjOTtjLTIuOTc1LDguMzU3LTEzLjQsMzIuMzI2LTI1LjczOSw0Mi43MzljLTIuMjUxLDEuOS0zLjU1LDQuNjk2LTMuNTUsNy42NDJ2MjcuNDkyYzAsNC4yNTMsMi42OSw4LjA0MSw2LjcwNSw5LjQ0MiYjMTA7JiM5OyYjOTsmIzk7JiM5O2MwLjIwNCwwLjA3MSw2LjI1LDIuMTg2LDE1LjM2Myw1LjUwM2MtMjEuMTY4LDE5LjQwOC00My4wNjEsMjguODI3LTY1LjE3NSwyNy45NzRjLTI1LjA1LTAuOTU2LTQ1LjI2Mi0xNC45MTktNTYuMDE5LTI0LjE5MiYjMTA7JiM5OyYjOTsmIzk7JiM5O2MxNC44NzQtNS4xNywyNS44MTYtOC43MzQsMjYuMS04LjgyN2M0LjA1NS0xLjMxNyw2LjgyOS01LjA2LDYuOTA5LTkuMzIzbDAuNTM5LTI4LjY3NWMwLjA2OS0zLjY3OS0xLjg4OC03LjA5OS01LjA5NC04LjkwMyYjMTA7JiM5OyYjOTsmIzk7JiM5O2MtMjEuMzU1LTEyLjAxNS0yNy41MjQtMzkuNjc5LTI3LjU3OC0zOS45MjdjLTAuNTE4LTIuNDgxLTEuOTg1LTQuNjkyLTQuMDU3LTYuMTUxYy0wLjE5OS0wLjE0LTE5Ljg4NS0xNC4yMDYtMTkuODg1LTMxLjY2NiYjMTA7JiM5OyYjOTsmIzk7JiM5O0MxNTMuNDcsMTcyLjc4LDE1NC41NzgsMTcwLjk0MywxNTQuODQzLDE3MC41ODN6Ii8+JiN4YTsJCQk8cGF0aCBkPSJNMzkuOTkzLDY5Ljk5OGM1LjUyMywwLDEwLTQuNDc3LDEwLTEwVjIwaDQwLjAwNmM1LjUyMywwLDEwLTQuNDc3LDEwLTEwcy00LjQ3Ny0xMC0xMC0xMEgzOS45OTMmIzEwOyYjOTsmIzk7JiM5OyYjOTtjLTUuNTIzLDAtMTAsNC40NzctMTAsMTB2NDkuOTk4QzI5Ljk5Myw2NS41MjEsMzQuNDcsNjkuOTk4LDM5Ljk5Myw2OS45OTh6Ii8+JiN4YTsJCQk8cGF0aCBkPSJNNDQwLjAwNywwaC01MC4wMDZjLTUuNTIzLDAtMTAsNC40NzctMTAsMTBzNC40NzcsMTAsMTAsMTBoNDAuMDA2djM5Ljk5OGMwLDUuNTIzLDQuNDc3LDEwLDEwLDEwczEwLTQuNDc3LDEwLTEwVjEwJiMxMDsmIzk7JiM5OyYjOTsmIzk7QzQ1MC4wMDcsNC40NzcsNDQ1LjUzLDAsNDQwLjAwNywweiIvPiYjeGE7CQkJPHBhdGggZD0iTTg5Ljk5OSw0NjBINDkuOTkzdi0zOS45OThjMC01LjUyMy00LjQ3Ny0xMC0xMC0xMGMtNS41MjMsMC0xMCw0LjQ3Ny0xMCwxMFY0NzBjMCw1LjUyMyw0LjQ3NywxMCwxMCwxMGg1MC4wMDYmIzEwOyYjOTsmIzk7JiM5OyYjOTtjNS41MjMsMCwxMC00LjQ3NywxMC0xMFM5NS41MjIsNDYwLDg5Ljk5OSw0NjB6Ii8+JiN4YTsJCQk8cGF0aCBkPSJNNDQwLjAwNyw0MTAuMDAyYy01LjUyMywwLTEwLDQuNDc3LTEwLDEwVjQ2MGgtNDAuMDA2Yy01LjUyMywwLTEwLDQuNDc3LTEwLDEwczQuNDc3LDEwLDEwLDEwaDUwLjAwNiYjMTA7JiM5OyYjOTsmIzk7JiM5O2M1LjUyMywwLDEwLTQuNDc3LDEwLTEwdi00OS45OThDNDUwLjAwNyw0MTQuNDc5LDQ0NS41Myw0MTAuMDAyLDQ0MC4wMDcsNDEwLjAwMnoiLz4mI3hhOwkJPC9nPiYjeGE7CTwvZz4mI3hhOzwvZz4mI3hhOzwvc3ZnPg==;" vertex="1" parent="1">
          <mxGeometry x="60" y="140" width="84" height="70" as="geometry" />
        </mxCell>
      </root>
    </mxGraphModel>
  </diagram>
</mxfile>
